<svg xmlns="http://www.w3.org/2000/svg" width="110.004" height="35.35" viewBox="0 0 445 143">
  <defs>
    <style>
      .cls-1, .cls-2 {
        fill: #fff;
      }

      .cls-1 {
        fill-rule: evenodd;
      }
    </style>
  </defs>
  <path id="F_복사" data-name="F 복사" class="cls-1" d="M61.893,91.1V65.052L25.141,70.066V49.035H68.877V22.988H0.869V141.38l24.272-5.85V96.113Z"/>
  <path id="LAYUS_복사" data-name="LAYUS 복사" class="cls-1" d="M126.046,139.545V117.668l-27,4V56.733H81.537v82.812h44.509Zm68.952,0L172.206,56.733h-23.7l-21.388,82.812h17.919l3.469-14.984,24.112-3.2,4.459,18.181H195ZM168.16,103.184l-15.194,2.1,7.6-32.965Zm68.868,34.063V107.679l26.1-50.946H243.057L228.11,88.5,213.164,56.733H193.1l25.93,50.646v34.264Zm71.264-32.465a31.73,31.73,0,0,1-.826,7.492,19.824,19.824,0,0,1-2.353,5.844,11.7,11.7,0,0,1-3.675,3.8,9.183,9.183,0,0,1-9.579,0,11.665,11.665,0,0,1-3.675-3.8,19.743,19.743,0,0,1-2.353-5.844,31.678,31.678,0,0,1-.826-7.492V56.733H267.416v48.448a52.462,52.462,0,0,0,2.065,15.284,34.208,34.208,0,0,0,5.9,11.588,25.924,25.924,0,0,0,9.207,7.342,29.809,29.809,0,0,0,24.113,0,25.566,25.566,0,0,0,9.166-7.342,34.714,34.714,0,0,0,5.863-11.588,52.531,52.531,0,0,0,2.064-15.284V56.733H308.292v48.049ZM389.96,80.208l-0.082-.7a34.335,34.335,0,0,0-2.56-9.989A23.9,23.9,0,0,0,373.61,56.334a34.049,34.049,0,0,0-11.313-2.1,29.88,29.88,0,0,0-9.579,1.349A23.768,23.768,0,0,0,344.5,60.03a23.118,23.118,0,0,0-5.863,7.542,24.034,24.034,0,0,0-2.354,10.539Q336.118,88,340.414,94.143a22.676,22.676,0,0,0,12.056,8.641l9.91,3.4q2.642,0.8,4.872,1.6a20.358,20.358,0,0,1,3.84,1.8,7.7,7.7,0,0,1,2.477,2.347,5.426,5.426,0,0,1,.784,3.247,6.6,6.6,0,0,1-1.032,3.746,8.392,8.392,0,0,1-2.684,2.547,12.988,12.988,0,0,1-3.757,1.5,19.035,19.035,0,0,1-4.418.5,13.027,13.027,0,0,1-3.468-.5,10.291,10.291,0,0,1-3.386-1.649,9.94,9.94,0,0,1-2.683-3.046,11.817,11.817,0,0,1-1.446-4.6l-0.33-2.4-17.176,2,0.248,2.9a33.072,33.072,0,0,0,3.014,11.288,25.675,25.675,0,0,0,6.028,8.041,24.806,24.806,0,0,0,8.5,4.9,33.805,33.805,0,0,0,10.364,1.748,32.514,32.514,0,0,0,11.478-1.6,29.136,29.136,0,0,0,9.414-5.145,24.378,24.378,0,0,0,6.4-8.141,24.745,24.745,0,0,0,2.436-10.689,27.726,27.726,0,0,0-1.4-9.689,23.073,23.073,0,0,0-4.17-7.343,23.558,23.558,0,0,0-6.4-5.244,39.516,39.516,0,0,0-8.01-3.4l-9-3.2q-1.734-.5-3.344-1a11.866,11.866,0,0,1-2.932-1.349,6.51,6.51,0,0,1-2.064-2.048,6.007,6.007,0,0,1-.743-3.2,6.624,6.624,0,0,1,.784-3.3,6.868,6.868,0,0,1,2.065-2.3,7.883,7.883,0,0,1,2.89-1.249,15.752,15.752,0,0,1,3.344-.35,11.561,11.561,0,0,1,6.317,2.048,7.572,7.572,0,0,1,3.262,5.744l0.33,1.8Z"/>
  <path id="사각형_1" data-name="사각형 1" class="cls-1" d="M80,23H421V39H80V23h0Z"/>
  <path id="사각형_1_복사" data-name="사각형 1 복사" class="cls-1" d="M405,142V38h16V142H405Z"/>
  <circle id="타원_1" data-name="타원 1" class="cls-2" cx="432.515" cy="11.516" r="11.516"/>
</svg>
